<svg xmlns="http://www.w3.org/2000/svg" width="51.923" height="60" viewBox="0 0 51.923 60">
  <g id="Logo-Lancrage-Horizontal" transform="translate(-3609.035 -1003.575)">
    <path id="Tracé_11" data-name="Tracé 11" d="M3660.946,1045.339l-3.4-9.172a.183.183,0,0,0-.306-.06l-6.488,7.032a.18.18,0,0,0,.135.3h3.017c-1.42,5.539-4.315,7.262-6.084,7.209s-3.109-.636-4.878-2.412-2.626-9.144-2.626-9.144l-2.546-18.022,8.755-2.449a.09.09,0,0,0-.014-.176l-9.519-1.138-.114-2.584c4.315-1.484,4.085-4.841,4.085-4.841-.375-6.727-5.932-6.3-5.932-6.3l.061.019s-5.242-.866-5.709,6.387c0,0-.59,3.5,3.725,4.983l-.107,2.332-9.519,1.138a.09.09,0,0,0-.014.176l8.756,2.449-2.547,18.022s-.857,7.368-2.626,9.144-3.109,2.359-4.878,2.412-4.664-1.67-6.084-7.209h3.018a.18.18,0,0,0,.135-.3l-6.487-7.032a.184.184,0,0,0-.307.06l-3.4,9.172a.181.181,0,0,0,.24.229l2.943-1.173s1.956,8.03,6.084,11.1,6.165,3.71,8.282,4.161,7.371,1.988,8.336,3.869c0,0,.021.046.062.045a.1.1,0,0,0,.07-.045c.965-1.882,6.218-3.419,8.335-3.869s4.154-1.086,8.282-4.161,6.084-11.1,6.084-11.1l2.942,1.173A.181.181,0,0,0,3660.946,1045.339Zm-25.942-38.8h0a1.664,1.664,0,0,1,1.832,1.952l-1.832,4.293.021.048h-.041l.02-.048-1.833-4.293A1.664,1.664,0,0,1,3635,1006.544Zm-.016,16.3a.046.046,0,0,1,.091,0l2.463,19.029a.09.09,0,0,1-.091.1l-4.7-.032a.09.09,0,0,1-.09-.1Zm11.847,31.255a26.871,26.871,0,0,1-7.4,2.881c-3.414.75-4.23,1.988-4.424,2.516a.073.073,0,0,1-.136,0c-.225-.526-1.109-1.767-4.531-2.52a26.884,26.884,0,0,1-7.4-2.881.132.132,0,0,1,.052-.246c7.119-1.146,8.733-9.11,8.733-9.11h6.32s1.614,7.964,8.733,9.11A.132.132,0,0,1,3646.834,1054.1Z" transform="translate(0 0)" fill="#03200e"/>
  </g>
</svg>
